<svg width="6290" height="7193" viewBox="0 0 6290 7193" fill="none" xmlns="http://www.w3.org/2000/svg">
<path d="M3855.71 1137.14C4169.72 1137.14 4424.28 882.581 4424.28 568.569C4424.28 254.557 4169.72 0 3855.71 0C3541.7 0 3287.14 254.557 3287.14 568.569C3287.14 882.581 3541.7 1137.14 3855.71 1137.14Z" fill="#48EA54"/>
<path d="M2434.29 2558.56C2748.3 2558.56 3002.86 2304.01 3002.86 1989.99C3002.86 1675.98 2748.3 1421.42 2434.29 1421.42C2120.28 1421.42 1865.72 1675.98 1865.72 1989.99C1865.72 2304.01 2120.28 2558.56 2434.29 2558.56Z" fill="#F9A526"/>
<path d="M4424.28 1475.73C4424.28 1457.51 4423.8 1439.41 4422.93 1421.42H3287.14V2555.32C3312.96 2557.23 3338.95 2558.56 3365.24 2558.56C3950.13 2558.56 4424.28 2073.76 4424.28 1475.73Z" fill="#E54B4B"/>
<path d="M3002.86 0.884441C2990.96 0.505395 2979.1 0 2967.12 0C2358.84 0 1865.72 479.417 1865.72 1070.8C1865.72 1093.09 1866.66 1115.18 1868.03 1137.14H3002.86V0.884441Z" fill="#3185FC"/>
<path d="M765.294 5780.68C645.515 5780.68 537.487 5759.83 441.209 5718.13C345.69 5676.44 266.848 5616.93 204.685 5539.6C143.279 5461.52 104.238 5369.03 87.5596 5262.14L371.844 5218.93C396.103 5315.97 445.758 5391.02 520.809 5444.08C596.618 5497.15 683.799 5523.68 782.351 5523.68C840.724 5523.68 895.686 5514.59 947.236 5496.39C998.786 5478.2 1040.48 5451.66 1072.32 5416.79C1104.92 5381.92 1121.22 5339.09 1121.22 5288.3C1121.22 5265.55 1117.43 5244.71 1109.85 5225.75C1102.27 5206.04 1090.89 5188.61 1075.73 5173.45C1061.33 5158.28 1042.38 5144.64 1018.88 5132.51C996.133 5119.62 969.599 5108.63 939.276 5099.53L516.261 4974.45C479.872 4963.83 440.451 4949.81 397.998 4932.37C356.303 4914.18 316.503 4889.54 278.599 4858.46C241.452 4826.62 210.75 4786.44 186.491 4737.92C162.99 4688.65 151.239 4628 151.239 4555.98C151.239 4450.6 177.773 4362.29 230.839 4291.03C284.663 4219.01 356.682 4165.18 446.895 4129.55C537.866 4093.92 638.692 4076.49 749.374 4077.24C861.571 4078 961.639 4097.33 1049.58 4135.24C1137.52 4172.38 1211.05 4226.59 1270.18 4297.85C1329.31 4369.11 1371.01 4455.15 1395.27 4555.98L1100.75 4607.15C1088.62 4549.54 1065.12 4500.64 1030.25 4460.46C996.133 4419.52 954.059 4388.44 904.024 4367.21C854.749 4345.99 802.061 4334.62 745.962 4333.1C691.38 4332.34 640.588 4340.68 593.586 4358.12C547.342 4374.8 509.817 4399.05 481.009 4430.89C452.96 4462.73 438.935 4499.88 438.935 4542.33C438.935 4582.51 451.065 4615.49 475.324 4641.26C499.583 4666.28 529.527 4686.37 565.157 4701.53C601.546 4715.94 638.313 4728.07 675.46 4737.92L968.841 4819.8C1009.02 4830.41 1054.13 4844.81 1104.16 4863.01C1154.19 4881.2 1202.33 4906.6 1248.58 4939.19C1294.82 4971.79 1332.73 5014.62 1362.29 5067.69C1392.61 5120.76 1407.78 5188.23 1407.78 5270.1C1407.78 5355.01 1389.96 5429.68 1354.33 5494.12C1319.46 5557.8 1272.08 5610.86 1212.19 5653.32C1152.3 5695.77 1083.69 5727.61 1006.37 5748.84C929.8 5770.06 849.442 5780.68 765.294 5780.68ZM2212.25 5780.68C2087.92 5780.68 1978.76 5753.76 1884.75 5699.94C1790.75 5646.12 1717.21 5571.44 1664.15 5475.92C1611.84 5380.4 1585.69 5270.48 1585.69 5146.15C1585.69 5011.97 1611.46 4895.6 1663.01 4797.05C1714.56 4697.74 1786.2 4620.8 1877.93 4566.21C1969.66 4511.63 2075.79 4484.34 2196.33 4484.34C2323.69 4484.34 2431.72 4514.28 2520.41 4574.17C2609.87 4633.3 2676.2 4717.07 2719.41 4825.48C2762.62 4933.89 2778.92 5061.63 2768.31 5208.7H2496.53V5108.63C2495.77 4975.2 2472.27 4877.79 2426.03 4816.38C2379.79 4754.98 2307.01 4724.28 2207.7 4724.28C2095.5 4724.28 2012.11 4759.15 1957.53 4828.89C1902.95 4897.88 1875.66 4999.08 1875.66 5132.51C1875.66 5256.84 1902.95 5353.11 1957.53 5421.34C2012.11 5489.57 2091.71 5523.68 2196.33 5523.68C2263.8 5523.68 2321.79 5508.9 2370.31 5479.34C2419.59 5449.01 2457.49 5405.42 2484.02 5348.56L2754.66 5430.44C2707.66 5541.12 2634.88 5627.16 2536.33 5688.57C2438.54 5749.97 2330.51 5780.68 2212.25 5780.68ZM1789.23 5208.7V5001.74H2634.13V5208.7H1789.23ZM3022.03 5746.56V4518.45H3264.24V4817.52L3234.68 4778.86C3249.84 4737.92 3269.93 4700.77 3294.95 4667.42C3320.72 4633.3 3351.42 4605.26 3387.05 4583.27C3417.38 4562.8 3450.73 4546.88 3487.12 4535.51C3524.27 4523.38 3562.17 4516.18 3600.84 4513.91C3639.5 4510.87 3677.02 4512.39 3713.41 4518.45V4774.31C3677.02 4763.7 3634.95 4760.29 3587.19 4764.08C3540.19 4767.87 3497.73 4781.13 3459.83 4803.88C3421.93 4824.34 3390.84 4850.5 3366.59 4882.34C3343.08 4914.18 3325.65 4950.57 3314.28 4991.5C3302.91 5031.68 3297.22 5075.27 3297.22 5122.27V5746.56H3022.03ZM4262.45 5746.56L3816.7 4518.45H4090.75L4400.05 5408.83L4708.21 4518.45H4983.4L4537.64 5746.56H4262.45ZM5337.85 6292.39L5574.37 5643.08L5578.92 5834.12L5043.33 4518.45H5328.75L5708.56 5491.84H5635.78L6005.35 4518.45H6279.4L5594.84 6292.39H5337.85Z" fill="black"/>
</svg>
